PathFileType	4	(X/Y/Z)	/home/skhan/TracX/Projects/SHARESPACE/EXERCISES/pose-3d/online_20250326-113730_310-350.trc
DataRate	CameraRate	NumFrames	NumMarkers	Units	OrigDataRate	OrigDataStartFrame	OrigNumFrames
30	30	4	37	m	30	1050	1200
Frame#	Time	Hip			RHip			RKnee			RAnkle			RBigToe			RSmallToe			RHeel			LHip			LKnee			LAnkle			LBigToe			LSmallToe			LHeel			Spine_01			Spine_02			Spine_03			Spine_04			Spine_05			LLatissimus			RLatissimus			RClavicle			RShoulder			RElbow			RWrist			LClavicle			LShoulder			LElbow			LWrist			Neck			Neck_02			Neck_03			Head			Nose			LEye			LEar			REye			REar		
		X1	Y1	Z1	X2	Y2	Z2	X3	Y3	Z3	X4	Y4	Z4	X5	Y5	Z5	X6	Y6	Z6	X7	Y7	Z7	X8	Y8	Z8	X9	Y9	Z9	X10	Y10	Z10	X11	Y11	Z11	X12	Y12	Z12	X13	Y13	Z13	X14	Y14	Z14	X15	Y15	Z15	X16	Y16	Z16	X17	Y17	Z17	X18	Y18	Z18	X19	Y19	Z19	X20	Y20	Z20	X21	Y21	Z21	X22	Y22	Z22	X23	Y23	Z23	X24	Y24	Z24	X25	Y25	Z25	X26	Y26	Z26	X27	Y27	Z27	X28	Y28	Z28	X29	Y29	Z29	X30	Y30	Z30	X31	Y31	Z31	X32	Y32	Z32	X33	Y33	Z33	X34	Y34	Z34	X35	Y35	Z35	X36	Y36	Z36	X37	Y37	Z37
1050	35.0	0.4296999516170195	-0.48309676173780824	-0.0778328169626893	0.3408165410278735	-0.49149738359694606	0.02475702949571361	-0.025507270916145595	-0.6560309562672779	0.23076564970433394	-0.43124803829084346	-0.790794031313771	0.079192536861121	-0.6563057518137189	-0.8767300940934435	0.16012288974935193	-0.6589381415176709	-0.8882552828463124	0.17322016708773535	-0.4874109155075908	-0.8361331117614382	0.03858840036156597	0.37658453921197954	-0.433737723218378	-0.17271254642659273	-0.03613455331795035	-0.577310475476617	0.009734180198666047	-0.46654390586850397	-0.7257086356948363	0.04282121870862677	-0.6668529316736813	-0.8126401781010478	0.1508610207755898	-0.673944023753507	-0.8254983938301319	0.10350571148439816	-0.5098940363773706	-0.7298338850751287	0.05202784542472927	0.4518573178940724	-0.46371725944899717	-0.04391282456505334	0.4942014537773622	-0.4352416174564381	0.00730581445422987	0.5486015391493327	-0.4035283094741037	0.06915768755063648	0.6023119091369279	-0.3594822076969341	0.14025926000992783	0.6421930276297185	-0.306921121138319	0.21977060362745732	0.6180868079924084	-0.33655403804708417	-0.005750807016957476	0.5033690104085711	-0.4502948523121998	0.14924131353603895	0.6429258006307771	-0.33066567342630193	0.19881055379688606	0.5688730046502621	-0.4128816073361154	0.3226098198417743	0.2962619779008671	-0.42460731553771525	0.3274524971330033	0.06465457620982397	-0.5780513615362124	0.31990301291151124	0.6611222569331936	-0.311934971177532	0.17637231238130108	0.7567754433323601	-0.25113911633411506	0.0511273245301654	0.8169314360079216	-0.24588887963435313	-0.29741835914366554	0.6898498759330768	-0.034577879970630734	-0.34590147414188577	0.6518951188981188	-0.26204688862428743	0.28885138812627464	0.6471482320252567	-0.24277063937982904	0.32713991197956827	0.6400608312167431	-0.21759262648268676	0.38115653626209745	0.6288232350944856	-0.18021527648768756	0.4647719411958535	0.5736523897888157	-0.15107523191152344	0.2974232663083986	0.6244640937532498	-0.14320227850204378	0.32176619144054874	0.7200724886342698	-0.2175054309781357	0.29680902760928296	0.5605915780151929	-0.1596710631884911	0.35046448414409914	0.5463559110452713	-0.1997469109633643	0.38928670446842967
1051	35.03333333333333	0.42752606682505023	-0.475650077834304	-0.07761028303936938	0.3388214605227971	-0.48479160287415135	0.023303492359569355	-0.02529464299555606	-0.658642332965388	0.22605285873723216	-0.4307451398276665	-0.792917883421779	0.07860349648342936	-0.654055404305921	-0.8876689511360651	0.16014941071833685	-0.6572150977267655	-0.8947051166672304	0.17244260967024716	-0.4875171987689628	-0.8379129531721556	0.03899226472277065	0.37791847463758066	-0.438983307734183	-0.17468075521524098	-0.03232948074369742	-0.5883933520394076	0.004686173966745774	-0.46033167047972107	-0.7347088328777382	0.04238113870199631	-0.6585476589617317	-0.8222610542130376	0.14960180429048786	-0.6662049639512669	-0.8369285210852493	0.10453688053504459	-0.5052314531532461	-0.7427541603658934	0.05058843092184065	0.4498011205061152	-0.4569176494272222	-0.04430951402219951	0.49313102016165133	-0.4297474248188215	0.006114141293224342	0.5483171550486876	-0.39771511396157083	0.06749586050115011	0.6022304727762702	-0.35297841598187957	0.1383755416367028	0.6424671738796454	-0.30096509029424146	0.21765004882057135	0.6191772243713537	-0.3338682459165446	-0.007042878940428394	0.502031338096371	-0.44111614211820016	0.14774944623978833	0.642771992323805	-0.3250636692767258	0.19620703668584055	0.5634471346387696	-0.3994627963387581	0.3231919550969568	0.2955019500652669	-0.43623888290392965	0.3279496300263097	0.058629490116123124	-0.5873075994970711	0.3216350014102204	0.6615083346822088	-0.30693884147050526	0.1740115375818637	0.7597076422744824	-0.2491518357033945	0.04855621503200955	0.8247675101645595	-0.2506927432010854	-0.29507965609979936	0.7038322362789355	-0.04081344181342889	-0.350927424738817	0.6521400793063601	-0.25579902186941844	0.28628386902457376	0.6472724103847065	-0.23647395904356974	0.32474924818961504	0.6405413216533649	-0.21120523981421296	0.37839278000906995	0.629487542844606	-0.1731949318720855	0.4621880205370944	0.5753575645643969	-0.14418652941836888	0.29633617919469185	0.626485630646291	-0.13631759067283591	0.3208308538160931	0.72171001960039	-0.21263694951631834	0.2951986098922147	0.5617945764987311	-0.1530173852664025	0.34957703352482294	0.5450154771479512	-0.1926866419910728	0.3878472396459574
1052	35.06666666666667	0.4270616513052521	-0.4742014288949016	-0.0741476743618049	0.3403384643137994	-0.4803486201384123	0.0219954394631443	-0.023780459474990235	-0.6601801196469121	0.22290948900718577	-0.4307819610354792	-0.7960780077104774	0.07774282350196776	-0.6504381178532195	-0.897188332237568	0.16063774612380488	-0.654257607420815	-0.8993297474811787	0.17281122839266636	-0.48573022561801465	-0.8400854442732161	0.03995675485429556	0.3816029643884935	-0.43950747762889075	-0.17581749537204838	-0.027310769077298895	-0.5954566700119266	-0.002568135828139247	-0.4568841889112915	-0.7433918138915662	0.040306919867073576	-0.6498116469112635	-0.8234599949114549	0.15133570902568036	-0.6580684439339761	-0.8394083326284022	0.10654205604618022	-0.5013106079767375	-0.749873685700169	0.05030283994843358	0.4494320108931216	-0.4547253380665109	-0.04185485555122684	0.4928236045183633	-0.4265396125438434	0.007360198226705533	0.5482162984658991	-0.3926644561213901	0.06747382257970995	0.6019561432831871	-0.3476704518573476	0.1371943244589106	0.6423362901798798	-0.2949922006911214	0.2151956649156706	0.6206361478795827	-0.33309625664000286	-0.008708892006909316	0.5012821574001087	-0.43367404628832257	0.14845152372554937	0.6429939186270819	-0.31781611503245905	0.19294580327374786	0.5604694629390421	-0.3871556374686092	0.32277861226971166	0.296786517149857	-0.43914518034832895	0.3289512948101203	0.05497021120484483	-0.5893215433213257	0.3243657263974301	0.6614288177521817	-0.3004784811958407	0.17160851312773936	0.7627648343170007	-0.24621189944348065	0.04586578443506387	0.8303922572032232	-0.2561511172341916	-0.2920205547012291	0.7155291397466155	-0.047887137540290226	-0.3550831851165125	0.6522898864891601	-0.2485574470282034	0.2834160397763991	0.6476006332313053	-0.22956883806960976	0.3223215451849029	0.6409378735688149	-0.20538238730585145	0.37630681881738814	0.6299523854588431	-0.16825224751793072	0.46042080319582945	0.5763198556737237	-0.13721405139361761	0.2938399867493257	0.627859300635349	-0.1293615012255802	0.3181313502117321	0.7227361540299688	-0.20811663907383204	0.2915943663696637	0.5622427339121103	-0.14807559583403967	0.34677052468238456	0.5443155140821281	-0.1865685717042583	0.38333357705242005
1053	35.1	0.42570213060967127	-0.4666086423284094	-0.07045615543134078	0.34092098872084614	-0.4764521707276722	0.02501423384606446	-0.023513009140713317	-0.6640875936999961	0.21946418567235762	-0.43063606848070224	-0.800056714124795	0.07743742824006326	-0.6492318975306111	-0.9131275795804553	0.15958409580479438	-0.6527308651006846	-0.9061478289829032	0.17360561229979052	-0.4853533993301328	-0.8452218406689288	0.0388384124240331	0.3816842478988738	-0.43633736060142136	-0.17296919019374088	-0.027746806167978165	-0.5939985222555247	-0.0035915442471162393	-0.452445845448317	-0.7475210094206743	0.038868426422303114	-0.6433045069867315	-0.8266915548812535	0.15123098895272705	-0.6533776521265187	-0.8444153490703994	0.10771279534392433	-0.49811975910541917	-0.7571711700439967	0.04924851658856904	0.448202673254973	-0.4467542531527429	-0.03937525792467788	0.4920315759239361	-0.419055391882582	0.008422888607122732	0.5487025455918773	-0.386875285607329	0.06673732500207083	0.6039061842450368	-0.34409044577538683	0.13437994455969926	0.6449563130323862	-0.29207835235865254	0.21099301927935282	0.6216951600912712	-0.32998319803633336	-0.009116324539313585	0.5039554606454751	-0.42627469403439255	0.14690850733739388	0.6462287248414973	-0.31422575410483766	0.188309768453433	0.5631696227720957	-0.3875285199890181	0.32101566703776474	0.3004240186840096	-0.45807416075560875	0.32701060394703674	0.05233273351781057	-0.5928663809593349	0.3256632703572352	0.6648373793665006	-0.298176016794956	0.16709617855000913	0.766072756744325	-0.24389900981886892	0.043738599022059794	0.8353049855436805	-0.2621128479438316	-0.29039998435523173	0.725063410217268	-0.05509129685164181	-0.36008715254326285	0.6543760147218906	-0.24362232851389531	0.27950153493033814	0.6491524013690924	-0.22437957871994632	0.3187909725501215	0.642009447326031	-0.1996334257858474	0.3729210037766782	0.6302980125177619	-0.16284296189252956	0.45737795740053816	0.576405176152598	-0.12997579091864905	0.28963537383484955	0.6279517406581147	-0.12154335396720058	0.3140134772526192	0.7244130155160239	-0.2026103923796957	0.2875999310275804	0.5623235373145227	-0.14142998215959138	0.3427306094681808	0.5432280796940049	-0.1810628940971969	0.3788520980139768
